<svg width="1200" height="800" viewBox="0 0 1200 800" fill="none" xmlns="http://www.w3.org/2000/svg">
  <defs>
    <linearGradient id="bg" x1="0" y1="0" x2="1200" y2="800" gradientUnits="userSpaceOnUse">
      <stop offset="0" stop-color="#0F172A"/>
      <stop offset="1" stop-color="#0E7490"/>
    </linearGradient>
    <linearGradient id="panel" x1="0" y1="0" x2="1" y2="1">
      <stop offset="0" stop-color="#FFFFFF" stop-opacity="0.9"/>
      <stop offset="1" stop-color="#E2E8F0" stop-opacity="0.75"/>
    </linearGradient>
  </defs>

  <rect width="1200" height="800" rx="28" fill="url(#bg)"/>
  <circle cx="180" cy="140" r="140" fill="#34D399" fill-opacity="0.3"/>
  <circle cx="1080" cy="680" r="180" fill="#67E8F9" fill-opacity="0.2"/>

  <rect x="110" y="110" width="980" height="580" rx="24" fill="#0B1224" fill-opacity="0.78" stroke="#94A3B8" stroke-opacity="0.3"/>
  <rect x="150" y="160" width="900" height="70" rx="14" fill="#111827"/>
  <circle cx="190" cy="195" r="8" fill="#EF4444"/>
  <circle cx="218" cy="195" r="8" fill="#F59E0B"/>
  <circle cx="246" cy="195" r="8" fill="#10B981"/>

  <rect x="170" y="270" width="260" height="360" rx="16" fill="url(#panel)"/>
  <rect x="460" y="270" width="260" height="360" rx="16" fill="url(#panel)"/>
  <rect x="750" y="270" width="260" height="360" rx="16" fill="url(#panel)"/>

  <text x="190" y="320" fill="#0F172A" font-family="Arial, sans-serif" font-size="28" font-weight="700">OnlyOffice</text>
  <text x="190" y="360" fill="#334155" font-family="Arial, sans-serif" font-size="20">Docs • Sheets • Slides</text>

  <text x="480" y="320" fill="#0F172A" font-family="Arial, sans-serif" font-size="28" font-weight="700">Nextcloud</text>
  <text x="480" y="360" fill="#334155" font-family="Arial, sans-serif" font-size="20">Files • Sync • Share</text>

  <text x="770" y="320" fill="#0F172A" font-family="Arial, sans-serif" font-size="28" font-weight="700">ERPNext</text>
  <text x="770" y="360" fill="#334155" font-family="Arial, sans-serif" font-size="20">Finance • HR • Ops</text>

  <text x="150" y="95" fill="#D1FAE5" font-family="Arial, sans-serif" font-size="38" font-weight="700">OS For Work</text>
  <text x="410" y="95" fill="#CFFAFE" font-family="Arial, sans-serif" font-size="30" font-weight="500">Open-Source Business Stack</text>

  <rect x="830" y="56" width="210" height="46" rx="23" fill="#10B981"/>
  <text x="865" y="86" fill="#ECFDF5" font-family="Arial, sans-serif" font-size="22" font-weight="700">v1.3.2</text>
</svg>
